<svg xmlns="http://www.w3.org/2000/svg">
    <defs>
        <symbol id="concentrate" xmlns="http://www.w3.org/2000/svg" viewBox="0 0 32 32">
            <path d="M16,12 C13.791,12 12,13.791 12,16 C12,18.209 13.791,20 16,20 C18.209,20 20,18.209 20,16 C20,13.791 18.209,12 16,12 M16,22 C12.691,22 10,19.309 10,16 C10,12.691 12.691,10 16,10 C19.309,10 22,12.691 22,16 C22,19.309 19.309,22 16,22 M16,8 C11.582,8 8,11.582 8,16 C8,20.418 11.582,24 16,24 C20.418,24 24,20.418 24,16 C24,11.582 20.418,8 16,8 M16,26 C10.486,26 6,21.514 6,16 C6,10.486 10.486,6 16,6 C21.514,6 26,10.486 26,16 C26,21.514 21.514,26 16,26 M16,4 C9.373,4 4,9.373 4,16 C4,22.627 9.373,28 16,28 C22.627,28 28,22.627 28,16 C28,9.373 22.627,4 16,4"/>
        </symbol>
        <symbol id="dimmer-dimdown" xmlns="http://www.w3.org/2000/svg" viewBox="0 0 32 32">
            <path d="M16.013,19.333 L16.013,12.667 C17.851,12.667 19.346,14.162 19.346,16 C19.346,17.838 17.851,19.333 16.013,19.333 M16.013,11 C18.775,11 21.013,13.238 21.013,16 C21.013,18.762 18.775,21 16.013,21 C13.251,21 11.013,18.762 11.013,16 C11.013,14.421 11.76,13.029 12.904,12.113 C13.759,11.427 14.831,11 16.013,11 Z M16.013,23 C16.563,23 17.013,23.45 17.013,24 L17.013,27.013 C17.013,27.562 16.563,28.013 16.013,28.013 C15.463,28.013 15.013,27.562 15.013,27.013 L15.013,24 C15.013,23.45 15.463,23 16.013,23 Z M16.013,9 C15.463,9 15.013,8.55 15.013,8 L15.013,5 C15.013,4.45 15.463,4 16.013,4 C16.563,4 17.013,4.45 17.013,5 L17.013,8 C17.013,8.55 16.563,9 16.013,9 Z M9.013,16 C9.013,16.55 8.563,17 8.013,17 L5,17 C4.451,17 4,16.55 4,16 C4,15.45 4.451,15 5,15 L8.013,15 C8.563,15 9.013,15.45 9.013,16 Z M27.013,15 C27.563,15 28.013,15.45 28.013,16 C28.013,16.55 27.563,17 27.013,17 L24.013,17 C23.463,17 23.013,16.55 23.013,16 C23.013,15.45 23.463,15 24.013,15 L27.013,15 Z M9.6829,20.916 C10.0719,20.527 10.7079,20.527 11.0969,20.916 C11.4859,21.305 11.4859,21.941 11.0969,22.33 L8.9669,24.46 C8.5779,24.85 7.9419,24.85 7.5519,24.46 C7.1629,24.071 7.1629,23.436 7.5519,23.046 L9.6829,20.916 Z M22.3118,11.0449 C21.9228,11.4339 21.2868,11.4339 20.8978,11.0449 C20.5088,10.6559 20.5088,10.0199 20.8978,9.6309 L23.0188,7.5099 C23.4078,7.1199 24.0438,7.1199 24.4328,7.5099 C24.8218,7.8989 24.8218,8.5339 24.4328,8.9239 L22.3118,11.0449 Z M9.6683,11.1045 L7.5373,8.9735 C7.1483,8.5845 7.1483,7.9495 7.5373,7.5595 C7.9263,7.1705 8.5633,7.1705 8.9513,7.5595 L11.0823,9.6905 C11.4713,10.0795 11.4713,10.7155 11.0823,11.1045 C10.6933,11.4935 10.0573,11.4935 9.6683,11.1045 Z M22.3675,20.9053 L24.4885,23.0263 C24.8775,23.4153 24.8775,24.0513 24.4885,24.4403 C24.0995,24.8293 23.4635,24.8293 23.0745,24.4403 L20.9535,22.3193 C20.5635,21.9293 20.5635,21.2943 20.9535,20.9053 C21.3425,20.5153 21.9785,20.5153 22.3675,20.9053 Z"/>
        </symbol>
        <symbol id="dimmer-dimup" xmlns="http://www.w3.org/2000/svg" viewBox="0 0 32 32">
            <path d="M16.0039,19.3409 L16.0039,12.6739 C17.8419,12.6739 19.3379,14.1689 19.3379,16.0069 C19.3379,17.8449 17.8419,19.3409 16.0039,19.3409 M16.0039,11.0069 C18.7659,11.0079 21.0039,13.2459 21.0039,16.0069 C21.0039,18.7689 18.7659,21.0069 16.0039,21.0069 C13.2419,21.0069 11.0039,18.7689 11.0039,16.0069 C11.0039,14.9719 11.3189,14.0099 11.8579,13.2119 C12.7569,11.8819 14.2779,11.0069 16.0039,11.0069 Z M16.0039,9 C15.4539,9 15.0039,8.551 15.0039,8 C15.0039,7.45 15.4539,7 16.0039,7 C16.5549,7 17.0039,7.45 17.0039,8 C17.0039,8.551 16.5549,9 16.0039,9 Z M24,15.0137 C24.55,15.0137 25,15.4637 25,16.0137 C25,16.5637 24.55,17.0137 24,17.0137 C23.45,17.0137 23,16.5637 23,16.0137 C23,15.4637 23.45,15.0137 24,15.0137 Z M16,23.0137 C16.55,23.0137 17,23.4637 17,24.0137 C17,24.5637 16.55,25.0137 16,25.0137 C15.45,25.0137 15,24.5637 15,24.0137 C15,23.4637 15.45,23.0137 16,23.0137 Z M8,15.0137 C8.55,15.0137 9,15.4637 9,16.0137 C9,16.5637 8.55,17.0137 8,17.0137 C7.45,17.0137 7,16.5637 7,16.0137 C7,15.4637 7.45,15.0137 8,15.0137 Z M10,9.0137 C10.55,9.0137 11,9.4637 11,10.0137 C11,10.5637 10.55,11.0137 10,11.0137 C9.45,11.0137 9,10.5637 9,10.0137 C9,9.4637 9.45,9.0137 10,9.0137 Z M22,11.0137 C21.45,11.0137 21,10.5637 21,10.0137 C21,9.4637 21.45,9.0137 22,9.0137 C22.55,9.0137 23,9.4637 23,10.0137 C23,10.5637 22.55,11.0137 22,11.0137 Z M22,21.0137 C22.55,21.0137 23,21.4637 23,22.0137 C23,22.5637 22.55,23.0137 22,23.0137 C21.45,23.0137 21,22.5637 21,22.0137 C21,21.4637 21.45,21.0137 22,21.0137 Z M10,21.0137 C10.55,21.0137 11,21.4637 11,22.0137 C11,22.5637 10.55,23.0137 10,23.0137 C9.45,23.0137 9,22.5637 9,22.0137 C9,21.4637 9.45,21.0137 10,21.0137 Z"/>
        </symbol>
        <symbol id="energize" xmlns="http://www.w3.org/2000/svg" viewBox="0 0 32 32">
            <path d="M25.9976696,15.955657 C25.9976696,21.482657 21.4826696,25.973657 15.9556696,25.997657 C11.5836696,25.977657 7.87266961,23.136657 6.53666961,19.205657 L14.2626696,15.132657 C14.5956696,14.956657 14.9956696,15.197657 14.9956696,15.574657 L14.9956696,17.560657 C14.9956696,17.927657 15.3776696,18.169657 15.7086696,18.013657 L25.1296696,13.571657 C25.4216696,13.434657 25.7636696,13.599657 25.8326696,13.913657 C25.9176696,14.306657 25.9976696,14.943657 25.9976696,15.955657 M17.5596696,4.09865702 C9.70966961,3.10865702 3.10866961,9.71065702 4.09866961,17.559657 C4.77166961,22.907657 9.09166961,27.226657 14.4396696,27.900657 C22.2896696,28.890657 28.8906696,22.288657 27.9006696,14.438657 C27.2266696,9.09165702 22.9076696,4.77165702 17.5596696,4.09865702"/>
        </symbol>
        <symbol id="reading" xmlns="http://www.w3.org/2000/svg" viewBox="0 0 32 32">
            <path d="M22,11 L10,11 C9.447,11 9,10.553 9,10 C9,9.447 9.447,9 10,9 L22,9 C22.553,9 23,9.447 23,10 C23,10.553 22.553,11 22,11 M22,15 L10,15 C9.447,15 9,14.553 9,14 C9,13.447 9.447,13 10,13 L22,13 C22.553,13 23,13.447 23,14 C23,14.553 22.553,15 22,15 M22,19 L10,19 C9.447,19 9,18.553 9,18 C9,17.447 9.447,17 10,17 L22,17 C22.553,17 23,17.447 23,18 C23,18.553 22.553,19 22,19 M22,23 L10,23 C9.447,23 9,22.553 9,22 C9,21.447 9.447,21 10,21 L22,21 C22.553,21 23,21.447 23,22 C23,22.553 22.553,23 22,23 M16,4 C9.384,4 4,9.383 4,15.999 C4,22.616 9.384,28 16,28 C22.616,28 28,22.616 28,15.999 C28,9.383 22.616,4 16,4"/>
        </symbol>
        <symbol id="nightlight" xmlns="http://www.w3.org/2000/svg" viewBox="0 0 32 32">
            <path d="M17.1253676,8.13779842 C17.0473676,8.09579842 16.9993676,8.01279842 17.0023676,7.92379842 C17.0053676,7.83579842 17.0593676,7.75679842 17.1393676,7.72079842 L18.7883676,6.97379842 L19.1083676,5.19179842 C19.1243676,5.10479842 19.1883676,5.03379842 19.2733676,5.00879842 C19.3563676,4.98479842 19.4503676,5.01079842 19.5103676,5.07579842 L20.7303676,6.41379842 L22.5223676,6.16779842 C22.6103676,6.16179842 22.6973676,6.19579842 22.7473676,6.26879842 C22.7983676,6.34179842 22.8013676,6.43679842 22.7573676,6.51479842 L21.8613676,8.08679842 L22.6493676,9.71779842 C22.6883676,9.79679842 22.6793676,9.89279842 22.6243676,9.96079842 C22.5703676,10.0307984 22.4853676,10.0617984 22.3933676,10.0467984 L20.6203676,9.68179842 L19.3133676,10.9357984 C19.2703676,10.9777984 19.2113676,10.9997984 19.1523676,10.9997984 C19.1263676,10.9997984 19.0993676,10.9947984 19.0733676,10.9867984 C18.9893676,10.9547984 18.9313676,10.8807984 18.9213676,10.7927984 L18.7213676,8.99179842 L17.1253676,8.13779842 Z M26.9632676,12.7344984 C27.0122676,12.8054984 27.0152676,12.8984984 26.9732676,12.9724984 L26.3932676,13.9914984 L26.9022676,15.0454984 C26.9412676,15.1214984 26.9312676,15.2134984 26.8782676,15.2804984 C26.8252676,15.3474984 26.7422676,15.3784984 26.6542676,15.3634984 L25.5082676,15.1274984 L24.6622676,15.9374984 C24.6202676,15.9784984 24.5652676,16.0004984 24.5072676,16.0004984 C24.4822676,16.0004984 24.4552676,15.9964984 24.4312676,15.9864984 C24.3502676,15.9584984 24.2932676,15.8844984 24.2842676,15.7994984 L24.1532676,14.6354984 L23.1212676,14.0834984 C23.0452676,14.0434984 22.9992676,13.9634984 23.0022676,13.8784984 C23.0052676,13.7924984 23.0572676,13.7144984 23.1342676,13.6794984 L24.2012676,13.1964984 L24.4092676,12.0434984 C24.4242676,11.9594984 24.4862676,11.8904984 24.5682676,11.8674984 C24.6532676,11.8424984 24.7382676,11.8684984 24.7972676,11.9314984 L25.5872676,12.7974984 L26.7462676,12.6374984 C26.8312676,12.6304984 26.9152676,12.6644984 26.9632676,12.7344984 Z M21.9632676,16.8760984 C22.0122676,16.9470984 22.0152676,17.0390984 21.9732676,17.1140984 L21.3932676,18.1330984 L21.9022676,19.1870984 C21.9412676,19.2630984 21.9312676,19.3550984 21.8782676,19.4220984 C21.8252676,19.4890984 21.7422676,19.5210984 21.6542676,19.5050984 L20.5082676,19.2690984 L19.6622676,20.0790984 C19.6202676,20.1190984 19.5652676,20.1420984 19.5072676,20.1420984 C19.4822676,20.1420984 19.4552676,20.1370984 19.4312676,20.1280984 C19.3502676,20.1000984 19.2932676,20.0260984 19.2842676,19.9410984 L19.1532676,18.7770984 L18.1212676,18.2250984 C18.0452676,18.1850984 17.9992676,18.1050984 18.0022676,18.0190984 C18.0052676,17.9330984 18.0572676,17.8560984 18.1342676,17.8210984 L19.2012676,17.3370984 L19.4092676,16.1850984 C19.4242676,16.1020984 19.4862676,16.0330984 19.5682676,16.0090984 C19.6512676,15.9840984 19.7392676,16.0110984 19.7972676,16.0740984 L20.5862676,16.9390984 L21.7462676,16.7790984 C21.8312676,16.7720984 21.9152676,16.8060984 21.9632676,16.8760984 Z M22.6038676,22.9678984 C22.9598676,22.9808984 23.1308676,23.3968984 22.8828676,23.6538984 C20.5108676,26.1028984 17.0198676,27.4518984 13.2388676,26.8628984 C8.4718676,26.1188984 4.6878676,22.1828984 4.0888676,17.3738984 C3.3118676,11.1298984 7.7258676,5.76189842 13.5788676,5.00389842 C13.9208676,4.95889842 14.1708676,5.33889842 13.9738676,5.62289842 C10.9838676,9.93289842 11.4008676,15.9048984 15.2268676,19.7498984 C17.2728676,21.8048984 19.9238676,22.8718984 22.6038676,22.9678984 Z"/>
        </symbol>
        <symbol id="relax" xmlns="http://www.w3.org/2000/svg" viewBox="0 0 32 32">
            <path d="M23.887,22.068 C22.135,24.328 19.45,25.843 16.462,25.982 C16.382,25.985 16.304,25.993 16.224,25.994 C16.084,25.997 15.949,25.987 15.811,25.984 C10.394,25.824 6.033,21.392 6.003,15.944 C6.004,15.742 6.014,15.542 6.029,15.342 C6.057,14.953 6.182,14.337 6.335,13.977 C7.155,12.051 9.151,10.792 11.411,11.068 C13.741,11.353 15.616,13.675 15.664,16.022 C15.729,19.13 18.279,21.64 21.403,21.64 C22.075,21.64 22.717,21.518 23.313,21.298 C23.782,21.126 24.195,21.672 23.887,22.068 M16,4 C9.373,4 4,9.373 4,16 C4,22.627 9.373,28 16,28 C22.627,28 28,22.627 28,16 C28,9.373 22.627,4 16,4"/>
        </symbol>
        <symbol id="colorloop" xmlns="http://www.w3.org/2000/svg" viewBox="0 0 32 32">
            <path d="M18.2480858,20.164 C18.7810858,20.735 19.3430858,21.273 20.0020858,21.81 C20.6860858,22.373 21.5430858,22.838 22.4140858,23.1 C24.1750858,23.656 26.1540858,23.512 27.8350858,22.673 C29.5200858,21.857 30.8700858,20.373 31.5220858,18.6 C32.1910858,16.832 32.1450858,14.819 31.3900858,13.084 C30.6500858,11.343 29.2050858,9.953 27.4930858,9.226 C25.7640858,8.522 23.8110858,8.487 22.1020858,9.125 C21.6740858,9.281 21.2680858,9.489 20.8860858,9.73 C20.4710858,9.991 20.1460858,10.268 19.8400858,10.542 C19.5460858,10.807 19.2720858,11.076 19.0090858,11.35 L19.0090858,8 C19.0090858,7.447 18.5610858,7 18.0090858,7 C17.4560858,7 17.0090858,7.447 17.0090858,8 L17.0090858,14 C17.0090858,14.553 17.4560858,15 18.0090858,15 L24.0090858,15 C24.5610858,15 25.0090858,14.553 25.0090858,14 C25.0090858,13.447 24.5610858,13 24.0090858,13 L20.3760858,13 C20.6770858,12.763 20.9760858,12.532 21.2720858,12.321 C21.5530858,12.126 21.8310858,11.949 22.0720858,11.842 C22.3460858,11.715 22.6290858,11.617 22.9120858,11.532 C24.0530858,11.204 25.3050858,11.343 26.3210858,11.854 C27.3600858,12.342 28.1750858,13.236 28.6100858,14.268 C29.0370858,15.301 29.0540858,16.503 28.6800858,17.552 C28.3020858,18.604 27.5080858,19.511 26.5070858,20.046 C25.5100858,20.574 24.2900858,20.74 23.1590858,20.467 C22.5810858,20.326 22.0740858,20.098 21.5740858,19.736 C21.1670858,19.45 20.7550858,19.101 20.3400858,18.744 C20.0770858,18.518 19.8260858,18.279 19.5890858,18.028 L13.7440858,11.849 C13.2110858,11.277 12.6490858,10.739 11.9900858,10.203 C11.3060858,9.641 10.4490858,9.175 9.57808575,8.913 C7.81708575,8.357 5.83808575,8.501 4.15708575,9.34 C2.47208575,10.155 1.12208575,11.64 0.470085754,13.413 C-0.198914246,15.182 -0.152914246,17.193 0.602085754,18.929 C1.34208575,20.67 2.78708575,22.06 4.49908575,22.787 C6.22808575,23.49 8.18108575,23.526 9.89108575,22.888 C10.3180858,22.732 10.7250858,22.524 11.1060858,22.282 C11.5210858,22.022 11.8460858,21.744 12.1520858,21.472 C12.4460858,21.207 12.7200858,20.937 12.9830858,20.663 L12.9830858,24.013 C12.9830858,24.565 13.4310858,25.013 13.9830858,25.013 C14.5360858,25.013 14.9830858,24.565 14.9830858,24.013 L14.9830858,18.013 C14.9830858,17.46 14.5360858,17.013 13.9830858,17.013 L7.98308575,17.013 C7.43108575,17.013 6.98308575,17.46 6.98308575,18.013 C6.98308575,18.565 7.43108575,19.013 7.98308575,19.013 L11.6160858,19.013 C11.3160858,19.25 11.0170858,19.48 10.7200858,19.691 C10.4390858,19.888 10.1610858,20.063 9.92008575,20.171 C9.64608575,20.299 9.36308575,20.395 9.08008575,20.48 C7.93908575,20.809 6.68708575,20.67 5.67108575,20.159 C4.63208575,19.672 3.81708575,18.776 3.38208575,17.746 C2.95508575,16.712 2.93808575,15.51 3.31208575,14.461 C3.69008575,13.408 4.48408575,12.502 5.48508575,11.967 C6.48208575,11.438 7.70208575,11.272 8.83308575,11.546 C9.41108575,11.687 9.91808575,11.915 10.4180858,12.277 C10.8250858,12.563 11.2370858,12.912 11.6520858,13.269 C11.9150858,13.494 12.1660858,13.733 12.4030858,13.984 L18.2480858,20.164 Z"/>
        </symbol>
        <symbol id="blink" xmlns="http://www.w3.org/2000/svg" viewBox="0 0 32 32">
            <path d="M24,17 L23,17 C22.45,17 22,16.55 22,16 C22,15.45 22.45,15 23,15 L24,15 C24.55,15 25,15.45 25,16 C25,16.55 24.55,17 24,17 Z M22.413,22.413 C22.024,22.802 21.388,22.802 20.999,22.413 L20.292,21.706 C19.902,21.316 19.902,20.681 20.292,20.292 C20.681,19.902 21.317,19.902 21.706,20.292 L22.413,20.999 C22.802,21.388 22.802,22.024 22.413,22.413 Z M16,20 C13.791,20 12,18.209 12,16 C12,13.791 13.791,12 16,12 C18.209,12 20,13.791 20,16 C20,18.209 18.209,20 16,20 Z M17,24 C17,24.55 16.55,25 16,25 C15.45,25 15,24.55 15,24 L15,23 C15,22.45 15.45,22 16,22 C16.55,22 17,22.45 17,23 L17,24 Z M11.708,21.706 L11.001,22.413 C10.612,22.802 9.976,22.802 9.587,22.413 C9.198,22.024 9.198,21.388 9.587,20.999 L10.294,20.292 C10.683,19.902 11.319,19.902 11.708,20.292 C12.098,20.681 12.098,21.316 11.708,21.706 Z M8,17 C7.45,17 7,16.55 7,16 C7,15.45 7.45,15 8,15 L9,15 C9.55,15 10,15.45 10,16 C10,16.55 9.55,17 9,17 L8,17 Z M9.587,9.587 C9.976,9.198 10.612,9.198 11.001,9.587 L11.708,10.294 C12.098,10.683 12.098,11.319 11.708,11.708 C11.319,12.098 10.683,12.098 10.294,11.708 L9.587,11.001 C9.198,10.612 9.198,9.976 9.587,9.587 Z M15,8 C15,7.45 15.45,7 16,7 C16.55,7 17,7.45 17,8 L17,9 C17,9.55 16.55,10 16,10 C15.45,10 15,9.55 15,9 L15,8 Z M20.292,10.294 L20.999,9.587 C21.388,9.198 22.024,9.198 22.413,9.587 C22.802,9.976 22.802,10.612 22.413,11.001 L21.706,11.708 C21.317,12.098 20.681,12.098 20.292,11.708 C19.902,11.319 19.902,10.683 20.292,10.294 Z M16,4 C9.373,4 4,9.373 4,16 C4,22.627 9.373,28 16,28 C22.627,28 28,22.627 28,16 C28,9.373 22.627,4 16,4 Z"/>
        </symbol>
        <symbol id="scenes" xmlns="http://www.w3.org/2000/svg" viewBox="0 0 32 32">
            <path d="M21.6748,20.3261 C20.8968,19.5431 20.8998,18.2771 21.6828,17.4981 C22.4658,16.7201 23.7328,16.7221 24.5118,17.5061 C25.2898,18.2891 25.2858,19.5551 24.5028,20.3351 C23.7198,21.1131 22.4538,21.1091 21.6748,20.3261 M23.0418,11.0591 C24.1468,11.0631 25.0388,11.9611 25.0358,13.0651 C25.0328,14.1701 24.1348,15.0631 23.0298,15.0591 C21.9258,15.0561 21.0328,14.1591 21.0358,13.0551 C21.0388,11.9501 21.9378,11.0561 23.0418,11.0591 M18.9288,25.0311 C17.8238,25.0271 16.9318,24.1301 16.9348,23.0251 C16.9378,21.9211 17.8358,21.0271 18.9408,21.0311 C20.0448,21.0341 20.9378,21.9311 20.9348,23.0361 C20.9318,24.1401 20.0328,25.0341 18.9288,25.0311 M17.5058,7.5471 C18.2888,6.7681 19.5558,6.7711 20.3348,7.5551 C21.1128,8.3391 21.1108,9.6041 20.3258,10.3841 C19.5428,11.1621 18.2778,11.1591 17.4978,10.3761 C16.7198,9.5931 16.7228,8.3261 17.5058,7.5471 M13.0598,10.9641 C11.9548,10.9611 11.0628,10.0621 11.0658,8.9581 C11.0688,7.8531 11.9668,6.9611 13.0708,6.9641 C14.1758,6.9671 15.0688,7.8651 15.0658,8.9701 C15.0628,10.0741 14.1638,10.9671 13.0598,10.9641 M15.9888,4.0001 C9.3668,4.0061 3.9998,9.3761 3.9998,16.0001 L4.0028,17.2571 C4.0058,18.9081 5.8928,19.8471 7.2118,18.8531 L8.0888,18.1931 C9.2968,17.2821 11.0458,17.9921 11.2718,19.4871 C12.0158,24.4141 12.9388,28.0001 17.9998,28.0001 C22.9998,28.0001 27.9998,23.0001 27.9998,16.0001 C27.9998,10.0001 23.8548,3.9931 15.9888,4.0001"/>
        </symbol>
    </defs>
</svg>
