<svg xmlns="http://www.w3.org/2000/svg">
    <defs>
        <symbol id="settings" xmlns="http://www.w3.org/2000/svg" viewBox="0 0 32 32">
            <path d="M16,21 C13.243,21 11,18.757 11,16 C11,13.243 13.243,11 16,11 C18.757,11 21,13.243 21,16 C21,18.757 18.757,21 16,21 M27.235,14.471 L24.796,14.102 C24.564,13.025 24.138,12.022 23.559,11.126 L25.026,9.137 C25.324,8.838 25.324,8.354 25.026,8.055 L23.945,6.974 C23.646,6.675 23.162,6.675 22.864,6.974 L20.874,8.441 C19.979,7.862 18.975,7.436 17.898,7.204 L17.529,4.765 C17.529,4.342 17.187,4 16.765,4 L15.235,4 C14.813,4 14.471,4.342 14.471,4.765 L14.102,7.204 C13.025,7.436 12.021,7.862 11.126,8.441 L9.137,6.974 C8.838,6.675 8.354,6.675 8.055,6.974 L6.974,8.055 C6.676,8.354 6.676,8.838 6.974,9.137 L8.441,11.126 C7.862,12.022 7.436,13.025 7.204,14.102 L4.765,14.471 C4.342,14.471 4,14.813 4,15.235 L4,16.765 C4,17.187 4.342,17.529 4.765,17.529 L7.204,17.898 C7.436,18.975 7.862,19.979 8.441,20.874 L6.974,22.863 C6.676,23.162 6.676,23.646 6.974,23.945 L8.055,25.026 C8.354,25.324 8.838,25.324 9.137,25.026 L11.126,23.559 C12.021,24.138 13.025,24.564 14.104,24.796 L14.471,27.235 C14.471,27.658 14.813,28 15.235,28 L16.765,28 C17.187,28 17.529,27.658 17.529,27.235 L17.898,24.796 C18.975,24.564 19.979,24.138 20.874,23.559 L22.864,25.026 C23.162,25.324 23.646,25.324 23.945,25.026 L25.026,23.945 C25.324,23.646 25.324,23.162 25.026,22.863 L23.559,20.874 C24.138,19.979 24.564,18.975 24.796,17.898 L27.235,17.529 C27.658,17.529 28,17.187 28,16.765 L28,15.235 C28,14.813 27.658,14.471 27.235,14.471"/>
        </symbol>
        <symbol id="plus" xmlns="http://www.w3.org/2000/svg" viewBox="0 0 32 32">
            <path d="M14,14 L14,10 C14,8.8954305 14.8954305,8 16,8 C17.1045695,8 18,8.8954305 18,10 L18,14 L22,14 C23.1045695,14 24,14.8954305 24,16 C24,17.1045695 23.1045695,18 22,18 L18,18 L18,22 C18,23.1045695 17.1045695,24 16,24 C14.8954305,24 14,23.1045695 14,22 L14,18 L10,18 C8.8954305,18 8,17.1045695 8,16 C8,14.8954305 8.8954305,14 10,14 L14,14 Z"/>
        </symbol>
        <symbol id="minus" xmlns="http://www.w3.org/2000/svg" viewBox="0 0 32 32">
            <path d="M20.9504157,13.87925 L18.1214157,11.05025 L19.0254157,10.14625 C19.2204157,9.95125 19.5374157,9.95125 19.7324157,10.14625 L21.8544157,12.26825 C22.0494157,12.46325 22.0494157,12.78025 21.8544157,12.97525 L20.9504157,13.87925 Z M17.4142157,11.75715 L20.2432157,14.58615 L13.8662157,20.96315 C13.7422157,21.08615 13.5892157,21.17615 13.4202157,21.22215 L10.6322157,21.98215 C10.2592157,22.08415 9.91621575,21.74115 10.0182157,21.36815 L10.7792157,18.58015 C10.8252157,18.41115 10.9142157,18.25815 11.0372157,18.13515 L17.4142157,11.75715 Z"/>
        </symbol>
        <symbol id="error" xmlns="http://www.w3.org/2000/svg" viewBox="0 0 32 32">
            <path d="M18.45,10.941 L17.216,17.019 C17.099,17.589 16.591,18 16,18 C15.409,18 14.9,17.589 14.784,17.019 L13.55,10.941 C13.24,9.42 14.423,8 16,8 C17.577,8 18.76,9.42 18.45,10.941 M16,23 C15.172,23 14.5,22.328 14.5,21.5 C14.5,20.671 15.172,20 16,20 C16.828,20 17.5,20.671 17.5,21.5 C17.5,22.328 16.828,23 16,23 M16,4 C9.373,4 4,9.373 4,16 C4,22.627 9.373,28 16,28 C22.627,28 28,22.627 28,16 C28,9.373 22.627,4 16,4"/>
        </symbol>
        <symbol id="power-on" xmlns="http://www.w3.org/2000/svg" viewBox="0 0 32 32">
            <path d="M14,20 L14,12 C14,10.9 14.9,10 16,10 C17.1,10 18,10.9 18,12 L18,20 C18,21.1 17.1,22 16,22 C14.9,22 14,21.1 14,20 M28,16 C28,9.373 22.627,4 16,4 C9.373,4 4,9.373 4,16 C4,22.627 9.373,28 16,28 C22.627,28 28,22.627 28,16"/>
        </symbol>
        <symbol id="power-off" xmlns="http://www.w3.org/2000/svg" viewBox="0 0 32 32">
            <path d="M16,22 C12.692,22 10,19.308 10,16 C10,12.692 12.692,10 16,10 C19.308,10 22,12.692 22,16 C22,19.308 19.308,22 16,22 M16,4 C9.373,4 4,9.373 4,16 C4,22.627 9.373,28 16,28 C22.627,28 28,22.627 28,16 C28,9.373 22.627,4 16,4 M16,13 C14.346,13 13,14.346 13,16 C13,17.654 14.346,19 16,19 C17.654,19 19,17.654 19,16 C19,14.346 17.654,13 16,13"/>
        </symbol>
        <symbol id="camera" xmlns="http://www.w3.org/2000/svg" viewBox="0 0 512 512">
            <path d="M402,166c-5.52,0-10,4.48-10,10s4.48,10,10,10c5.52,0,10-4.48,10-10S407.52,166,402,166z"/>
            <path d="M482,126H372.18l-31.706-63.413C335.357,52.356,325.075,46,313.64,46H198.36c-11.437,0-21.719,6.356-26.834,16.588
			L139.82,126H120v-10c0-16.542-13.458-30-30-30H70c-16.542,0-30,13.458-30,30v10H30c-16.542,0-30,13.458-30,30
			c0,27.175,0,269.429,0,280c0,16.542,13.458,30,30,30h452c16.542,0,30-13.458,30-30c0-27.175,0-269.429,0-280
			C512,139.458,498.542,126,482,126z M189.415,71.532C191.121,68.12,194.548,66,198.36,66h115.28c3.812,0,7.24,2.12,8.946,5.532
			L349.82,126H162.18L189.415,71.532z M60,116c0-5.514,4.486-10,10-10h20c5.514,0,10,4.486,10,10v10H60V116z M20,225.9h126.451
			C133.161,246.661,126,270.992,126,296c0,25.01,7.162,49.243,20.45,70H20V225.9z M256,186c60.133,0,110,48.719,110,110
			c0,61.212-49.797,110-110,110c-60.257,0-110-48.842-110-110C146,234.795,195.79,186,256,186z M492,436c0,5.514-4.486,10-10,10H30
			c-5.514,0-10-4.486-10-10v-50h142.226c24.435,25.472,58.349,40,93.774,40c35.431,0,69.348-14.532,93.775-40H492V436z M492,366
			H365.549C378.839,345.239,386,321.009,386,296c0-25.009-7.161-49.239-20.451-70H492V366z M492,206H349.774
			c-24.434-25.472-58.348-40-93.774-40c-35.43,0-69.347,14.532-93.775,40H20v-50c0-5.514,4.486-10,10-10c9.081,0,437.942,0,452,0
			c5.514,0,10,4.486,10,10V206z"/>
            <path d="M286,86h-60c-5.523,0-10,4.477-10,10s4.477,10,10,10h60c5.522,0,10-4.477,10-10S291.522,86,286,86z"/>
            <path d="M256,206c-49.626,0-90,40.374-90,90c0,49.626,40.374,90,90,90c49.626,0,90-40.374,90-90C346,246.374,305.626,206,256,206z
			 M256,366c-38.598,0-70-31.402-70-70c0-38.598,31.402-70,70-70s70,31.402,70,70C326,334.598,294.598,366,256,366z"/>
            <path d="M256,246c-27.57,0-50,22.43-50,50c0,5.523,4.477,10,10,10s10-4.477,10-10c0-16.542,13.458-30,30-30
			c5.522,0,10-4.477,10-10S261.522,246,256,246z"/>
            <path d="M462,166h-20c-5.522,0-10,4.477-10,10s4.478,10,10,10h20c5.522,0,10-4.477,10-10S467.522,166,462,166z"/>
        </symbol>
        <symbol id="digg" xmlns="http://www.w3.org/2000/svg" viewBox="0 0 37 32">
            <path d="M5.857 5.036h3.643v17.554h-9.5v-12.446h5.857v-5.107zM5.857 19.661v-6.589h-2.196v6.589h2.196zM10.964 10.143v12.446h3.661v-12.446h-3.661zM10.964 5.036v3.643h3.661v-3.643h-3.661zM16.089 10.143h9.518v16.821h-9.518v-2.911h5.857v-1.464h-5.857v-12.446zM21.946 19.661v-6.589h-2.196v6.589h2.196zM27.071 10.143h9.5v16.821h-9.5v-2.911h5.839v-1.464h-5.839v-12.446zM32.911 19.661v-6.589h-2.196v6.589h2.196z"/>
        </symbol>
        <symbol id="confirmed" xmlns="http://www.w3.org/2000/svg" viewBox="0 0 37 32">
            <path d="M22.072,12.953 L15.307,21.075 C14.966,21.485 14.357,21.529 13.961,21.173 L9.664,17.302 C9.204,16.887 9.163,16.173 9.572,15.707 C9.891,15.343 10.406,15.227 10.848,15.421 L14.457,17.003 L20.771,11.634 C21.134,11.326 21.666,11.344 22.007,11.676 C22.357,12.017 22.386,12.576 22.072,12.953 M16,4 C9.373,4 4,9.373 4,16 C4,22.627 9.373,28 16,28 C22.627,28 28,22.627 28,16 C28,9.373 22.627,4 16,4"/>
        </symbol>
        <symbol id="sheep" xmlns="http://www.w3.org/2000/svg" viewBox="0 0 512 512">
            <path d="m256 241c-18.007 0-33.995-8.134-45-20.729-7.82 8.952-18.155 15.52-30 18.6v77.129c0 41.353 33.647 75 75 75-3.838 0-7.676-1.465-10.605-4.395l-30-30c-5.859-5.859-5.859-15.352 0-21.211s15.352-5.859 21.211 0l19.394 19.395 19.395-19.395c5.859-5.859 15.352-5.859 21.211 0s5.859 15.352 0 21.211l-30 30c-2.93 2.93-6.768 4.395-10.605 4.395 41.353 0 75-33.647 75-75v-77.13c-11.845-3.08-22.18-9.648-30-18.6-11.006 12.596-26.994 20.73-45.001 20.73zm-30 60c-8.284 0-15-6.716-15-15 0-8.286 6.716-15 15-15s15 6.714 15 15c0 8.284-6.716 15-15 15zm60 0c-8.284 0-15-6.716-15-15 0-8.286 6.716-15 15-15s15 6.714 15 15c0 8.284-6.716 15-15 15z"/>
            <path d="m481.604 195.81c9.346-21.519 8.232-46.538-3.765-67.31-11.997-20.786-34.105-34.263-57.411-36.929-2.666-23.306-16.143-45.414-36.929-57.411-20.757-11.982-45.762-13.081-67.31-3.779-13.959-18.838-36.195-30.381-60.189-30.381s-46.23 11.543-60.19 30.381c-21.519-9.331-46.509-8.203-67.31 3.779-20.771 11.997-34.248 34.105-36.929 57.411-23.291 2.666-44.414 16.143-56.411 36.929-11.997 20.771-14.11 45.791-4.765 67.31-18.852 13.96-30.395 36.196-30.395 60.19s11.543 46.23 30.396 60.19c-9.346 21.504-8.232 46.538 3.765 67.31s34.105 34.248 57.411 36.929c2.681 23.306 16.157 45.414 36.929 57.411s45.806 13.14 67.31 3.765c13.959 18.852 36.195 30.395 60.189 30.395s46.23-11.543 60.19-30.396c21.533 9.36 46.553 8.232 67.31-3.765 20.786-11.997 34.263-34.12 36.929-57.411 23.306-2.681 45.414-16.157 57.411-36.929s13.11-45.806 3.765-67.31c18.852-13.959 30.395-36.195 30.395-60.189s-11.543-46.23-30.396-60.19zm-105.604 105.19h-15v15c0 57.891-47.109 105-105 105s-105-47.109-105-105v-15h-15c-41.353 0-75-33.647-75-75 0-8.291 6.709-15 15-15h38.344c-5.167-8.86-8.344-19.023-8.344-30 0-8.291 6.709-15 15-15s15 6.709 15 15c0 16.538 13.462 30 30 30s30-13.462 30-30c0-8.291 6.709-15 15-15s15 6.709 15 15c0 16.538 13.462 30 30 30s30-13.462 30-30c0-8.291 6.709-15 15-15s15 6.709 15 15c0 16.538 13.462 30 30 30s30-13.462 30-30c0-8.291 6.709-15 15-15s15 6.709 15 15c0 10.977-3.177 21.14-8.344 30h38.344c8.291 0 15 6.709 15 15 0 41.353-33.647 75-75 75z"/>
            <path d="m136 271h15v-30h-57.437c6.197 17.461 22.881 30 42.437 30z"/>
            <path d="m361 271h15c19.556 0 36.24-12.539 42.437-30h-57.437z"/>
        </symbol>
        <symbol id="chevron" xmlns="http://www.w3.org/2000/svg" viewBox="0 0 32 32">
            <path d="M9.797 8.5c0 0.125-0.063 0.266-0.156 0.359l-6.141 6.141 6.141 6.141c0.094 0.094 0.156 0.234 0.156 0.359s-0.063 0.266-0.156 0.359l-0.781 0.781c-0.094 0.094-0.234 0.156-0.359 0.156s-0.266-0.063-0.359-0.156l-7.281-7.281c-0.094-0.094-0.156-0.234-0.156-0.359s0.063-0.266 0.156-0.359l7.281-7.281c0.094-0.094 0.234-0.156 0.359-0.156s0.266 0.063 0.359 0.156l0.781 0.781c0.094 0.094 0.156 0.219 0.156 0.359z"/>
        </symbol>
        <symbol id="bell" xmlns="http://www.w3.org/2000/svg" viewBox="0 0 28 28">
            <path d="M14.25 26.5c0-0.141-0.109-0.25-0.25-0.25-1.234 0-2.25-1.016-2.25-2.25 0-0.141-0.109-0.25-0.25-0.25s-0.25 0.109-0.25 0.25c0 1.516 1.234 2.75 2.75 2.75 0.141 0 0.25-0.109 0.25-0.25zM27 22c0 1.094-0.906 2-2 2h-7c0 2.203-1.797 4-4 4s-4-1.797-4-4h-7c-1.094 0-2-0.906-2-2 2.312-1.953 5-5.453 5-13 0-3 2.484-6.281 6.625-6.891-0.078-0.187-0.125-0.391-0.125-0.609 0-0.828 0.672-1.5 1.5-1.5s1.5 0.672 1.5 1.5c0 0.219-0.047 0.422-0.125 0.609 4.141 0.609 6.625 3.891 6.625 6.891 0 7.547 2.688 11.047 5 13z"/>
        </symbol>
        <symbol id="bell-slash" xmlns="http://www.w3.org/2000/svg" viewBox="0 0 37 32">
            <path d="M27.821 15.214c0.911 5.321 3.25 8.179 5.321 9.929 0 1.25-1.036 2.286-2.286 2.286h-8c0 2.518-2.054 4.571-4.571 4.571s-4.554-2.036-4.571-4.554zM18.286 30.571c0.161 0 0.286-0.125 0.286-0.286s-0.125-0.286-0.286-0.286c-1.411 0-2.571-1.161-2.571-2.571 0-0.161-0.125-0.286-0.286-0.286s-0.286 0.125-0.286 0.286c0 1.732 1.411 3.143 3.143 3.143zM36.179 2c0.196 0.25 0.179 0.607-0.054 0.821l-33.429 28.964c-0.232 0.196-0.607 0.179-0.804-0.071l-1.5-1.714c-0.196-0.25-0.179-0.607 0.054-0.804l3.321-2.875c-0.214-0.357-0.339-0.75-0.339-1.179 2.643-2.232 5.714-6.232 5.714-14.857 0-3.429 2.839-7.179 7.571-7.875-0.089-0.214-0.143-0.446-0.143-0.696 0-0.946 0.768-1.714 1.714-1.714s1.714 0.768 1.714 1.714c0 0.25-0.054 0.482-0.143 0.696 3.071 0.446 5.339 2.179 6.554 4.286l7.464-6.482c0.232-0.196 0.607-0.179 0.804 0.071z"/>
        </symbol>
        <symbol id="magic-wand" xmlns="http://www.w3.org/2000/svg" viewBox="0 0 32 32">
            <path d="M8 6l-4-4h-2v2l4 4zM10 0h2v4h-2zM18 10h4v2h-4zM20 4v-2h-2l-4 4 2 2zM0 10h4v2h-4zM10 18h2v4h-2zM2 18v2h2l4-4-2-2zM31.563 27.563l-19.879-19.879c-0.583-0.583-1.538-0.583-2.121 0l-1.879 1.879c-0.583 0.583-0.583 1.538 0 2.121l19.879 19.879c0.583 0.583 1.538 0.583 2.121 0l1.879-1.879c0.583-0.583 0.583-1.538 0-2.121zM15 17l-6-6 2-2 6 6-2 2z"/>
        </symbol>
        <symbol id="images" xmlns="http://www.w3.org/2000/svg" viewBox="0 0 477.867 477.867">
            <path d="M426.667,68.267H51.2c-28.277,0-51.2,22.923-51.2,51.2V358.4c0,28.277,22.923,51.2,51.2,51.2h375.467 c28.277,0,51.2-22.923,51.2-51.2V119.467C477.867,91.19,454.944,68.267,426.667,68.267z M443.733,358.4 c0,9.426-7.641,17.067-17.067,17.067H51.2c-9.426,0-17.067-7.641-17.067-17.067v-10.001l68.267-68.267l56.201,56.201 c6.664,6.663,17.468,6.663,24.132,0l141.534-141.534l119.467,119.467V358.4z M443.733,266.001L336.333,158.601 c-6.664-6.663-17.468-6.663-24.132,0L170.667,300.134l-56.201-56.201c-6.664-6.663-17.468-6.663-24.132,0l-56.201,56.201V119.467 c0-9.426,7.641-17.067,17.067-17.067h375.467c9.426,0,17.067,7.641,17.067,17.067V266.001z"/>
            <path d="M153.6,136.533c-28.277,0-51.2,22.923-51.2,51.2c0,28.277,22.923,51.2,51.2,51.2s51.2-22.923,51.2-51.2 C204.8,159.456,181.877,136.533,153.6,136.533z M153.6,204.8c-9.426,0-17.067-7.641-17.067-17.067 c0-9.426,7.641-17.067,17.067-17.067s17.067,7.641,17.067,17.067C170.667,197.159,163.026,204.8,153.6,204.8z"/>
        </symbol>
        <symbol id="profile" xmlns="http://www.w3.org/2000/svg" viewBox="0 0 27 32">
            <rect fill="none" x="0" y="0"/>
            <path d="M21.446 14c2.518 0.732 5.982 3.214 5.982 11.339 0 3.679-2.732 6.661-6.089 6.661h-15.25c-3.357 0-6.089-2.982-6.089-6.661 0-8.125 3.464-10.607 5.982-11.339-0.893-1.411-1.411-3.071-1.411-4.857 0-5.036 4.107-9.143 9.143-9.143s9.143 4.107 9.143 9.143c0 1.786-0.518 3.446-1.411 4.857zM13.714 2.286c-3.786 0-6.857 3.071-6.857 6.857s3.071 6.857 6.857 6.857 6.857-3.071 6.857-6.857-3.071-6.857-6.857-6.857zM21.339 29.714c2.089 0 3.804-1.946 3.804-4.375 0-5.625-1.893-9.143-5.429-9.321-1.607 1.411-3.696 2.268-6 2.268s-4.393-0.857-6-2.268c-3.536 0.179-5.429 3.696-5.429 9.321 0 2.429 1.714 4.375 3.804 4.375h15.25z"/>
        </symbol>
        <symbol id="home" xmlns="http://www.w3.org/2000/svg" viewBox="0 0 32 32">
            <path d="M27.6631,14.191252 L16.7081,4.27825203 C16.3091,3.90825203 15.6921,3.90725203 15.2921,4.27525203 L4.3401,14.188252 C3.6391,14.832252 4.0951,16.000252 5.0471,16.000252 L6.9891,16.000252 L6.9761,27.000252 C6.9761,27.552252 7.4241,28.000252 7.9761,28.000252 L16.9871,28.000252 L16.9871,22.000252 C16.9871,21.447252 17.4351,21.000252 17.9881,21.000252 L19.9901,21.000252 C20.5441,21.000252 20.9921,21.447252 20.9921,22.000252 L20.9921,28.000252 L21.0061,28.000252 L23.9851,28.000252 C24.5381,28.000252 24.9861,27.552252 24.9861,27.000252 L25.0001,16.000252 L26.9531,16.000252 C27.9031,16.000252 28.3601,14.836252 27.6631,14.191252"/>
        </symbol>
        <symbol id="moon" xmlns="http://www.w3.org/2000/svg" viewBox="0 0 32 32">
            <rect fill="none" x="0" y="0"/>
            <path d="M22.536 23.268c-0.643 0.107-1.304 0.161-1.964 0.161-6.625 0-12-5.375-12-12 0-2.268 0.661-4.482 1.857-6.375-4.75 1.411-8.143 5.768-8.143 10.946 0 6.304 5.125 11.429 11.429 11.429 3.446 0 6.679-1.571 8.821-4.161zM26.161 21.75c-2.232 4.839-7.125 7.964-12.446 7.964-7.554 0-13.714-6.161-13.714-13.714 0-7.411 5.804-13.429 13.196-13.696 0.5-0.018 0.911 0.268 1.089 0.696 0.196 0.446 0.071 0.964-0.268 1.286-2.036 1.857-3.161 4.393-3.161 7.143 0 5.357 4.357 9.714 9.714 9.714 1.411 0 2.768-0.304 4.071-0.911 0.446-0.196 0.946-0.107 1.286 0.232s0.429 0.857 0.232 1.286z"/>
        </symbol>
        <symbol id="sun" xmlns="http://www.w3.org/2000/svg" viewBox="0 0 32 32">
            <rect fill="none" x="0" y="0"/>
            <path d="M26.286 16c0-5.679-4.607-10.286-10.286-10.286s-10.286 4.607-10.286 10.286 4.607 10.286 10.286 10.286 10.286-4.607 10.286-10.286zM31.214 20.946c-0.054 0.179-0.196 0.304-0.357 0.357l-5.214 1.714v5.464c0 0.179-0.089 0.357-0.232 0.464-0.161 0.107-0.339 0.143-0.518 0.071l-5.214-1.679-3.214 4.429c-0.107 0.143-0.286 0.232-0.464 0.232s-0.357-0.089-0.464-0.232l-3.214-4.429-5.214 1.679c-0.179 0.071-0.357 0.036-0.518-0.071-0.143-0.107-0.232-0.286-0.232-0.464v-5.464l-5.214-1.714c-0.161-0.054-0.304-0.179-0.357-0.357s-0.036-0.375 0.071-0.518l3.214-4.429-3.214-4.429c-0.107-0.161-0.125-0.339-0.071-0.518s0.196-0.304 0.357-0.357l5.214-1.714v-5.464c0-0.179 0.089-0.357 0.232-0.464 0.161-0.107 0.339-0.143 0.518-0.071l5.214 1.679 3.214-4.429c0.214-0.286 0.714-0.286 0.929 0l3.214 4.429 5.214-1.679c0.179-0.071 0.357-0.036 0.518 0.071 0.143 0.107 0.232 0.286 0.232 0.464v5.464l5.214 1.714c0.161 0.054 0.304 0.179 0.357 0.357s0.036 0.357-0.071 0.518l-3.214 4.429 3.214 4.429c0.107 0.143 0.125 0.339 0.071 0.518z"/>
        </symbol>
        <symbol id="apple" xmlns="http://www.w3.org/2000/svg" viewBox="0 0 32 32">
            <path d="M24.734 17.003c-0.040-4.053 3.305-5.996 3.454-6.093-1.88-2.751-4.808-3.127-5.851-3.171-2.492-0.252-4.862 1.467-6.127 1.467-1.261 0-3.213-1.43-5.28-1.392-2.716 0.040-5.221 1.579-6.619 4.012-2.822 4.897-0.723 12.151 2.028 16.123 1.344 1.944 2.947 4.127 5.051 4.049 2.026-0.081 2.793-1.311 5.242-1.311s3.138 1.311 5.283 1.271c2.18-0.041 3.562-1.981 4.897-3.931 1.543-2.255 2.179-4.439 2.216-4.551-0.048-0.022-4.252-1.632-4.294-6.473zM20.705 5.11c1.117-1.355 1.871-3.235 1.665-5.11-1.609 0.066-3.559 1.072-4.713 2.423-1.036 1.199-1.942 3.113-1.699 4.951 1.796 0.14 3.629-0.913 4.747-2.264z"/>
        </symbol>
        <symbol id="exchange" xmlns="http://www.w3.org/2000/svg" viewBox="0 0 28 28">
            <path d="M28 18.5v3c0 0.266-0.234 0.5-0.5 0.5h-21.5v3c0 0.266-0.219 0.5-0.5 0.5-0.141 0-0.266-0.063-0.375-0.156l-4.984-5c-0.094-0.094-0.141-0.219-0.141-0.344 0-0.141 0.047-0.266 0.141-0.359l5-5c0.094-0.094 0.234-0.141 0.359-0.141 0.266 0 0.5 0.219 0.5 0.5v3h21.5c0.266 0 0.5 0.219 0.5 0.5zM28 10c0 0.125-0.047 0.266-0.141 0.359l-5 5c-0.094 0.094-0.234 0.141-0.359 0.141-0.266 0-0.5-0.234-0.5-0.5v-3h-21.5c-0.266 0-0.5-0.234-0.5-0.5v-3c0-0.266 0.234-0.5 0.5-0.5h21.5v-3c0-0.281 0.219-0.5 0.5-0.5 0.141 0 0.266 0.063 0.375 0.156l4.984 4.984c0.094 0.094 0.141 0.234 0.141 0.359z"/>
        </symbol>
        <symbol id="power-off" xmlns="http://www.w3.org/2000/svg" viewBox="0 0 32 32">
            <path d="M20 4.581v4.249c1.131 0.494 2.172 1.2 3.071 2.099 1.889 1.889 2.929 4.4 2.929 7.071s-1.040 5.182-2.929 7.071c-1.889 1.889-4.4 2.929-7.071 2.929s-5.182-1.040-7.071-2.929c-1.889-1.889-2.929-4.4-2.929-7.071s1.040-5.182 2.929-7.071c0.899-0.899 1.94-1.606 3.071-2.099v-4.249c-5.783 1.721-10 7.077-10 13.419 0 7.732 6.268 14 14 14s14-6.268 14-14c0-6.342-4.217-11.698-10-13.419zM14 0h4v16h-4z"/>
        </symbol>
        <symbol id="superman" xmlns="http://www.w3.org/2000/svg" viewBox="0 0 50 50">
            <path d="M 8.539063 9 L 1.6875 16.996094 L 25 44.546875 L 25.765625 43.644531 L 48.3125 16.996094 L 41.78125 9.375 C 41.769531 9.359375 41.757813 9.347656 41.746094 9.335938 L 41.457031 9 Z M 9.460938 11 L 13.207031 11 C 10.664063 12.539063 7.75 15.152344 6.386719 19.453125 L 4.3125 17.003906 Z M 25.023438 11 C 27.117188 10.949219 28.695313 11.261719 29.90625 11.742188 C 30.0625 11.832031 30.148438 11.894531 30.328125 12.003906 C 30.902344 12.28125 31.289063 12.613281 31.6875 12.941406 C 32.167969 13.324219 32.605469 13.726563 32.976563 14.140625 C 33.21875 14.476563 33.453125 14.808594 33.585938 15.089844 C 33.699219 15.316406 33.847656 15.546875 33.878906 15.738281 C 33.925781 15.894531 34.015625 16.160156 34.015625 16.160156 C 34.09375 16.644531 34.511719 17 35 17 L 41 17 C 41.550781 17 42 16.550781 42 16 L 42 12.703125 L 45.6875 17.003906 L 41.527344 21.917969 C 41.226563 21.300781 40.796875 20.765625 40.273438 20.335938 C 39.222656 19.476563 37.863281 18.980469 36.339844 18.648438 C 33.285156 17.984375 29.5 18 26 18 C 22.753906 18 20.019531 17.984375 18.253906 17.640625 C 17.375 17.472656 16.753906 17.214844 16.433594 16.953125 C 16.113281 16.695313 16 16.5 16 16 C 16 15.84375 16.167969 14.5625 17.332031 13.421875 C 18.5 12.28125 20.714844 11.105469 25.023438 11 Z M 32.640625 11 L 36.277344 11 C 36.011719 11.460938 35.953125 11.542969 35.625 12.144531 C 35.394531 12.566406 35.195313 12.976563 34.984375 13.394531 C 34.933594 13.324219 34.898438 13.242188 34.84375 13.171875 C 34.734375 13.035156 34.578125 12.945313 34.460938 12.8125 C 34.3125 12.613281 34.289063 12.449219 34.109375 12.25 C 33.714844 11.8125 33.21875 11.390625 32.640625 11 Z M 38.578125 11 L 40 11 L 40 15 L 36.40625 15 C 36.671875 14.4375 37.019531 13.757813 37.375 13.105469 C 37.976563 12.003906 38.375 11.34375 38.578125 11 Z M 16.96875 11.363281 C 16.667969 11.589844 16.179688 11.753906 15.9375 11.992188 C 14.347656 13.546875 14 15.15625 14 16 C 14 17 14.453125 17.929688 15.175781 18.515625 C 15.902344 19.097656 16.820313 19.402344 17.875 19.609375 C 19.988281 20.015625 22.753906 20 26 20 C 29.5 20 33.214844 20.015625 35.910156 20.601563 C 37.261719 20.894531 38.339844 21.335938 39.007813 21.882813 C 39.589844 22.359375 39.863281 22.914063 39.9375 23.6875 C 37.253906 26.835938 37.722656 26.179688 36.476563 27.539063 C 36.332031 27.082031 36.148438 26.632813 35.796875 26.269531 C 34.960938 25.414063 33.667969 25 32 25 C 25.5 25 20.257813 25 16.4375 24.75 C 14.53125 24.628906 12.976563 24.441406 11.832031 24.183594 C 10.6875 23.921875 9.972656 23.558594 9.707031 23.292969 C 8.820313 22.40625 8.773438 22.226563 8.097656 20.859375 C 9.652344 14.691406 14.648438 12.199219 16.96875 11.363281 Z M 12.167969 26.28125 C 13.339844 26.496094 14.707031 26.644531 16.3125 26.75 C 20.242188 27 25.5 27 32 27 C 33.332031 27 34.039063 27.335938 34.359375 27.667969 C 34.683594 27.996094 34.785156 28.402344 34.644531 29.042969 C 34.546875 29.503906 34.121094 30.058594 33.722656 30.597656 C 33.617188 30.703125 32.953125 31.46875 32.890625 31.53125 C 32.25 32.117188 31.546875 32.707031 30.628906 33.074219 C 29.511719 33.519531 28.175781 33.679688 26.976563 33.800781 C 26.4375 33.851563 26.039063 33.945313 25.4375 33.957031 C 25.207031 33.960938 25.03125 33.972656 24.878906 33.972656 C 24.785156 33.433594 24.621094 32.757813 24.269531 32.050781 C 23.523438 30.5625 21.832031 29 19 29 C 17.390625 29 16.257813 29.269531 15.503906 29.574219 C 15.355469 29.632813 15.230469 29.695313 15.109375 29.761719 Z M 19 31 C 21.167969 31 21.976563 31.9375 22.480469 32.949219 C 22.683594 33.351563 22.613281 33.421875 22.6875 33.769531 C 20.394531 33.523438 18.71875 33.164063 18.515625 33.097656 L 16.761719 31.347656 C 17.28125 31.183594 17.871094 31 19 31 Z M 30.140625 35.375 L 25 41.453125 L 19.878906 35.398438 C 20.863281 35.570313 22.070313 35.75 23.46875 35.84375 C 23.613281 35.9375 23.78125 35.992188 23.957031 36 C 23.957031 36 24.605469 35.980469 24.835938 35.984375 C 24.902344 35.984375 24.933594 36 25 36 C 25.097656 36 25.144531 35.976563 25.238281 35.976563 C 25.84375 35.976563 26.300781 35.878906 27.355469 35.765625 C 28.421875 35.65625 29.339844 35.511719 30.140625 35.375 Z"/>
        </symbol>
        <symbol id="bridge" xmlns="http://www.w3.org/2000/svg" viewBox="0 0 100 100">
            <path d="m25.413 5c-11.309 0-20.413 9.104-20.413 20.413v49.174c0 11.309 9.104 20.413 20.413 20.413h49.052c11.309 0 20.415-9.1037 20.415-20.413v-49.175c0-11.309-9.1057-20.413-20.415-20.413zm39.846 7.6794c1.1576 0.000546 2.1011 0.94485 2.1004 2.1024-0.000545 1.1567-0.94372 2.0999-2.1004 2.1004-1.1576 0.000718-2.1019-0.94284-2.1024-2.1004-0.000718-1.1585 0.94396-2.1031 2.1024-2.1024zm-30.136 0.03018c1.1585-0.000718 2.1031 0.94396 2.1024 2.1024-0.000546 1.1576-0.94485 2.1011-2.1024 2.1004-1.1567-0.000544-2.0999-0.94372-2.1004-2.1004-0.000718-1.1576 0.94284-2.1019 2.1004-2.1024zm14.335 0.12876h1.7986v1.4667h-0.7102v0.36854h2.199v0.45597h-0.65789v0.4289h0.71221v1.4667h-1.8006v-1.352-0.11468h0.83091v-0.4289h-2.9152v0.4289h0.78665v1.4667h-1.8006v-1.352-0.11468h0.75647v-0.4289h-0.7786v-0.45597h2.4102v-0.36854h-0.83091v-1.354zm0.32355 0.32355v0.82158h1.1535v-0.82158zm15.478 0.03256c-0.09061-0.000056-0.17718 0.01177-0.26356 0.02616-0.05959 0.30324-0.1081 0.60703-0.14083 0.91139 0.26167 0.0191 0.52476 0.02309 0.78866 0.01207-0.03442-0.30888-0.08248-0.61753-0.14486-0.92547-0.0788-0.01198-0.15716-0.0241-0.23942-0.02415zm-30.136 0.03018c-0.8792 0.000414-1.5859 0.70818-1.5854 1.5874 0.000415 0.87851 0.70686 1.585 1.5854 1.5854 0.8792 0.000545 1.587-0.70617 1.5874-1.5854 0.000546-0.87989-0.7075-1.5879-1.5874-1.5874zm30.647 0.06036c0.05324 0.28085 0.10177 0.56254 0.13278 0.84701 0.24638-0.02074 0.49349-0.05963 0.74239-0.11065-0.1883-0.34486-0.49754-0.60789-0.87517-0.73635zm-1.0462 0.008c-0.36076 0.12884-0.65748 0.38121-0.84298 0.7102 0.23858 0.04117 0.477 0.0854 0.71623 0.11065 0.02928-0.2756 0.07668-0.54846 0.12675-0.82085zm-29.877 0.64783h0.51504v1.686h-0.51504zm28.923 0.30581c-0.05993 0.1678-0.0987 0.3462-0.09858 0.53516 0.000089 0.18814 0.03896 0.36605 0.09858 0.53315 0.26458-0.04663 0.52917-0.09337 0.79671-0.12071-0.0111-0.27684-0.0084-0.552 0.01207-0.82488-0.27154-0.02834-0.54031-0.07462-0.80878-0.12273zm2.9796 0.0161c-0.27804 0.05978-0.55482 0.10183-0.8289 0.12474 0.0205 0.2622 0.02641 0.52685 0.01811 0.79269 0.26754 0.02445 0.53742 0.06841 0.80878 0.12876 0.05846-0.16568 0.09648-0.34088 0.09657-0.52712 0.000114-0.18301-0.0382-0.35575-0.09456-0.51907zm-1.9153 0.12675c-0.01955 0.26034-0.0222 0.52211-0.01207 0.78464 0.28403-0.02009 0.57073-0.02062 0.85908-0.006 0.008-0.2572 0.0022-0.5134-0.01811-0.76854-0.27816 0.01201-0.55475 0.01-0.8289-0.01006zm0.83493 1.0341c-0.28012-0.01422-0.55938-0.01192-0.83695 0.008 0.02419 0.30053 0.07069 0.60271 0.14284 0.90736 0.0925 0.01659 0.18623 0.02823 0.28368 0.02817 0.09395-0.000044 0.18426-0.01262 0.27362-0.02817 0.06965-0.30745 0.11494-0.61234 0.13681-0.91541zm0.25752 0.01207c-0.01936 0.27398-0.05989 0.54937-0.11468 0.82689 0.35072-0.13061 0.63874-0.38071 0.82085-0.70215-0.23616-0.04983-0.47231-0.10291-0.70617-0.12474zm-1.348 0.01609c-0.23252 0.02421-0.46419 0.06775-0.69612 0.10663 0.18122 0.32095 0.46553 0.57073 0.81482 0.70215-0.05582-0.27161-0.09718-0.5409-0.1187-0.80878zm-16.331 0.43018v0.82158h1.1295v-0.82158zm3.0743 0v0.82158h1.1535v-0.82158zm-16.169 3.1792c0.40054-0.000485 0.72567 0.32374 0.72629 0.72428 0.000487 0.40132-0.32497 0.72678-0.72629 0.72629-0.40054-0.000625-0.72477-0.32576-0.72428-0.72629 0.000624-0.39975 0.32453-0.72366 0.72428-0.72428zm15.144 0c0.40054-0.000485 0.72567 0.32374 0.72629 0.72428 0.000487 0.40132-0.32497 0.72678-0.72629 0.72629-0.40054-0.000626-0.72477-0.32576-0.72428-0.72629 0.000624-0.39975 0.32453-0.72366 0.72428-0.72428zm15.144 0c0.40054-0.000485 0.72567 0.32374 0.72629 0.72428 0.000487 0.40132-0.32497 0.72678-0.72629 0.72629-0.40132 0.000486-0.72678-0.32497-0.72629-0.72629 0.000626-0.40054 0.32576-0.72477 0.72629-0.72428zm-15.234 13.401c9.5933 0 17.381 7.7874 17.381 17.381 0 9.5933-7.7874 17.381-17.381 17.381-9.5933 0-17.381-7.7874-17.381-17.381 0-9.5933 7.7874-17.381 17.381-17.381zm0 0.99589c-9.0553 0-16.385 7.3295-16.385 16.385 0 9.0553 7.3295 16.385 16.385 16.385 9.0553 0 16.385-7.3295 16.385-16.385 0-9.0553-7.3295-16.385-16.385-16.385z"/>
        </symbol>
        <symbol id="softwareupdate" xmlns="http://www.w3.org/2000/svg" viewBox="0 0 32 32">
            <path d="M24.49,7.51075 C19.811,2.82975 12.195,2.82975 7.515,7.51075 C6.734,8.29275 6.734,9.55875 7.515,10.34075 C8.298,11.12175 9.563,11.12175 10.344,10.34075 C13.465,7.21975 18.542,7.21975 21.662,10.34075 C23.173,11.85175 24.005,13.86275 24.005,15.99975 C24.005,18.13775 23.173,20.14875 21.662,21.65875 C18.663,24.65875 13.86,24.76675 10.721,21.99975 L12,21.99975 C13.104,21.99975 14,21.10475 14,19.99975 C14,18.89575 13.104,17.99975 12,17.99975 L6,17.99975 C4.895,17.99975 4,18.89575 4,19.99975 L4,25.99975 C4,27.10475 4.895,27.99975 6,27.99975 C7.104,27.99975 8,27.10475 8,25.99975 L8,24.92575 C10.271,26.96675 13.134,27.99975 16.003,27.99975 C19.077,27.99975 22.15,26.82975 24.49,24.48875 C29.17,19.80875 29.17,12.19175 24.49,7.51075"/>
        </symbol>
        <symbol id="connection-error" xmlns="http://www.w3.org/2000/svg" viewBox="0 0 32 32">
            <path d="M18.450267,12.941252 L17.216267,19.019252 C17.099267,19.589252 16.591267,20.000252 16.000267,20.000252 C15.409267,20.000252 14.900267,19.589252 14.784267,19.019252 L13.550267,12.941252 C13.240267,11.420252 14.423267,10.000252 16.000267,10.000252 C17.577267,10.000252 18.760267,11.420252 18.450267,12.941252 M16.000267,25.000252 C15.171267,25.000252 14.498267,24.328252 14.498267,23.500252 C14.498267,22.671252 15.171267,22.000252 16.000267,22.000252 C16.829267,22.000252 17.502267,22.671252 17.502267,23.500252 C17.502267,24.328252 16.829267,25.000252 16.000267,25.000252 M27.663267,14.191252 L16.708267,4.27825203 C16.308267,3.90825203 15.692267,3.90725203 15.292267,4.27525203 L4.340267,14.188252 C3.638267,14.832252 4.095267,16.000252 5.047267,16.000252 L7.013267,16.000252 L7.000267,27.000252 C7.000267,27.552252 7.448267,28.000252 8.001267,28.000252 L23.985267,28.000252 C24.538267,28.000252 24.986267,27.552252 24.986267,27.000252 L25.000267,16.000252 L26.953267,16.000252 C27.903267,16.000252 28.360267,14.836252 27.663267,14.191252"/>
        </symbol>
    </defs>
</svg>
